<mxfile host="app.diagrams.net" modified="2022-12-14T16:52:48.766Z" agent="5.0 (Windows NT 10.0; Win64; x64) AppleWebKit/537.36 (KHTML, like Gecko) Chrome/108.0.0.0 Safari/537.36" version="20.6.0" etag="jaCH8wsvUm5i0Dpo05yi" type="github">
  <diagram id="n9pI1FVGf3tamz9tpdI-" name="Page-1">
    <mxGraphModel dx="769" dy="417" grid="1" gridSize="10" guides="1" tooltips="1" connect="1" arrows="1" fold="1" page="1" pageScale="1" pageWidth="413" pageHeight="291" math="0" shadow="0">
      <root>
        <mxCell id="0" />
        <mxCell id="1" parent="0" />
        <mxCell id="CgKHzoVv6gVs0gmYn11W-40" value="&lt;span style=&quot;&quot;&gt;Application IHM&lt;/span&gt;" style="shape=umlLifeline;perimeter=lifelinePerimeter;whiteSpace=wrap;html=1;container=0;collapsible=0;recursiveResize=0;outlineConnect=0;rounded=1;fillColor=#FAE5C7;strokeColor=#0F8B8D;fontColor=#143642;" vertex="1" parent="1">
          <mxGeometry x="326.46" y="86.5" width="100" height="243.5" as="geometry" />
        </mxCell>
        <mxCell id="CgKHzoVv6gVs0gmYn11W-41" value="user" style="shape=umlActor;verticalLabelPosition=bottom;verticalAlign=top;html=1;rounded=1;fillColor=#FAE5C7;strokeColor=#0F8B8D;fontColor=#143642;" vertex="1" parent="1">
          <mxGeometry x="163" y="67" width="30" height="60" as="geometry" />
        </mxCell>
        <mxCell id="CgKHzoVv6gVs0gmYn11W-42" value="&lt;span style=&quot;&quot;&gt;Application&lt;/span&gt;" style="shape=umlLifeline;perimeter=lifelinePerimeter;whiteSpace=wrap;html=1;container=0;collapsible=0;recursiveResize=0;outlineConnect=0;rounded=1;fillColor=#FAE5C7;strokeColor=#0F8B8D;fontColor=#143642;" vertex="1" parent="1">
          <mxGeometry x="525" y="86.5" width="100" height="243.5" as="geometry" />
        </mxCell>
        <mxCell id="CgKHzoVv6gVs0gmYn11W-43" value="&lt;span style=&quot;&quot;&gt;Storage&lt;/span&gt;" style="shape=umlLifeline;perimeter=lifelinePerimeter;whiteSpace=wrap;html=1;container=0;collapsible=0;recursiveResize=0;outlineConnect=0;rounded=1;fillColor=#FAE5C7;strokeColor=#0F8B8D;fontColor=#143642;" vertex="1" parent="1">
          <mxGeometry x="723" y="86.5" width="100" height="243.5" as="geometry" />
        </mxCell>
        <mxCell id="CgKHzoVv6gVs0gmYn11W-44" value="" style="endArrow=none;dashed=1;html=1;rounded=1;labelBackgroundColor=#DAD2D8;strokeColor=#009900;fontColor=#143642;fillColor=#d5e8d4;" edge="1" parent="1">
          <mxGeometry width="50" height="50" relative="1" as="geometry">
            <mxPoint x="178" y="330" as="sourcePoint" />
            <mxPoint x="177.86493506493503" y="147" as="targetPoint" />
          </mxGeometry>
        </mxCell>
        <mxCell id="CgKHzoVv6gVs0gmYn11W-45" value="" style="html=1;points=[];perimeter=orthogonalPerimeter;rounded=0;glass=0;labelBackgroundColor=none;fillStyle=auto;fillColor=#FAE5C7;strokeColor=#0F8B8D;fontColor=#143642;" vertex="1" parent="1">
          <mxGeometry x="173" y="160" width="10" height="150" as="geometry" />
        </mxCell>
        <mxCell id="CgKHzoVv6gVs0gmYn11W-46" value="" style="html=1;points=[];perimeter=orthogonalPerimeter;rounded=0;glass=0;labelBackgroundColor=none;fillStyle=auto;fillColor=#FAE5C7;strokeColor=#0F8B8D;fontColor=#143642;" vertex="1" parent="1">
          <mxGeometry x="371.46" y="160" width="10" height="150" as="geometry" />
        </mxCell>
        <mxCell id="CgKHzoVv6gVs0gmYn11W-47" value="" style="html=1;points=[];perimeter=orthogonalPerimeter;rounded=0;glass=0;labelBackgroundColor=none;fillStyle=auto;fillColor=#FAE5C7;strokeColor=#0F8B8D;fontColor=#143642;" vertex="1" parent="1">
          <mxGeometry x="570" y="160" width="10" height="150" as="geometry" />
        </mxCell>
        <mxCell id="CgKHzoVv6gVs0gmYn11W-48" value="" style="html=1;points=[];perimeter=orthogonalPerimeter;rounded=0;glass=0;labelBackgroundColor=none;fillStyle=auto;fillColor=#FAE5C7;strokeColor=#0F8B8D;fontColor=#143642;" vertex="1" parent="1">
          <mxGeometry x="768" y="160" width="10" height="150" as="geometry" />
        </mxCell>
        <mxCell id="CgKHzoVv6gVs0gmYn11W-49" value="Select language (Fr or En)" style="text;html=1;align=center;verticalAlign=middle;resizable=0;points=[];autosize=1;strokeColor=none;fillColor=none;rounded=1;fontColor=#143642;" vertex="1" parent="1">
          <mxGeometry x="198.09" y="154" width="160" height="30" as="geometry" />
        </mxCell>
        <mxCell id="CgKHzoVv6gVs0gmYn11W-50" value="" style="endArrow=open;endFill=1;endSize=12;html=1;rounded=1;entryX=0.071;entryY=0.165;entryDx=0;entryDy=0;entryPerimeter=0;labelBackgroundColor=#DAD2D8;strokeColor=#A8201A;fontColor=#143642;" edge="1" parent="1">
          <mxGeometry width="160" relative="1" as="geometry">
            <mxPoint x="183.5" y="183.42999999999984" as="sourcePoint" />
            <mxPoint x="372.6700000000001" y="183.04999999999984" as="targetPoint" />
          </mxGeometry>
        </mxCell>
        <mxCell id="CgKHzoVv6gVs0gmYn11W-51" value="Ask interface of selected&lt;br&gt;language" style="text;html=1;align=center;verticalAlign=middle;resizable=0;points=[];autosize=1;strokeColor=none;fillColor=none;rounded=1;fontColor=#143642;" vertex="1" parent="1">
          <mxGeometry x="402" y="161" width="150" height="40" as="geometry" />
        </mxCell>
        <mxCell id="CgKHzoVv6gVs0gmYn11W-52" value="" style="endArrow=open;endFill=1;endSize=12;html=1;rounded=1;labelBackgroundColor=#DAD2D8;strokeColor=#A8201A;fontColor=#143642;" edge="1" parent="1">
          <mxGeometry x="525" y="86.5" width="160" relative="1" as="geometry">
            <mxPoint x="381" y="201" as="sourcePoint" />
            <mxPoint x="571" y="201" as="targetPoint" />
          </mxGeometry>
        </mxCell>
        <mxCell id="CgKHzoVv6gVs0gmYn11W-57" value="Update informations&lt;br&gt;in the file Config" style="text;html=1;align=center;verticalAlign=middle;resizable=0;points=[];autosize=1;strokeColor=none;fillColor=none;rounded=1;fontColor=#143642;" vertex="1" parent="1">
          <mxGeometry x="612.69" y="179" width="130" height="40" as="geometry" />
        </mxCell>
        <mxCell id="CgKHzoVv6gVs0gmYn11W-58" value="" style="endArrow=open;endFill=1;endSize=12;html=1;rounded=1;labelBackgroundColor=#DAD2D8;strokeColor=#A8201A;fontColor=#143642;" edge="1" parent="1">
          <mxGeometry width="160" relative="1" as="geometry">
            <mxPoint x="581.3299999999999" y="218.9999999999999" as="sourcePoint" />
            <mxPoint x="771.3299999999999" y="218.9999999999999" as="targetPoint" />
          </mxGeometry>
        </mxCell>
        <mxCell id="CgKHzoVv6gVs0gmYn11W-61" value="Modification successful" style="text;html=1;align=center;verticalAlign=middle;resizable=0;points=[];autosize=1;strokeColor=none;fillColor=none;rounded=1;fontColor=#143642;" vertex="1" parent="1">
          <mxGeometry x="600.5" y="222" width="150" height="30" as="geometry" />
        </mxCell>
        <mxCell id="CgKHzoVv6gVs0gmYn11W-62" value="" style="endArrow=block;dashed=1;endFill=0;endSize=12;html=1;rounded=1;labelBackgroundColor=#DAD2D8;strokeColor=#A8201A;fontColor=#143642;" edge="1" parent="1">
          <mxGeometry width="160" relative="1" as="geometry">
            <mxPoint x="769.0000000000003" y="252" as="sourcePoint" />
            <mxPoint x="579.1666666666669" y="252" as="targetPoint" />
          </mxGeometry>
        </mxCell>
        <mxCell id="CgKHzoVv6gVs0gmYn11W-63" value="Loading screen" style="text;html=1;align=center;verticalAlign=middle;resizable=0;points=[];autosize=1;strokeColor=none;fillColor=none;rounded=1;fontColor=#143642;" vertex="1" parent="1">
          <mxGeometry x="420.67" y="236" width="110" height="30" as="geometry" />
        </mxCell>
        <mxCell id="CgKHzoVv6gVs0gmYn11W-64" value="" style="endArrow=block;dashed=1;endFill=0;endSize=12;html=1;rounded=1;labelBackgroundColor=#DAD2D8;strokeColor=#A8201A;fontColor=#143642;" edge="1" parent="1">
          <mxGeometry width="160" relative="1" as="geometry">
            <mxPoint x="569.1700000000002" y="263" as="sourcePoint" />
            <mxPoint x="379.336666666667" y="263" as="targetPoint" />
          </mxGeometry>
        </mxCell>
        <mxCell id="CgKHzoVv6gVs0gmYn11W-65" value="Display new interface" style="text;html=1;align=center;verticalAlign=middle;resizable=0;points=[];autosize=1;strokeColor=none;fillColor=none;rounded=1;fontColor=#143642;" vertex="1" parent="1">
          <mxGeometry x="207.13000000000002" y="250" width="140" height="30" as="geometry" />
        </mxCell>
        <mxCell id="CgKHzoVv6gVs0gmYn11W-66" value="" style="endArrow=block;dashed=1;endFill=0;endSize=12;html=1;rounded=1;labelBackgroundColor=#DAD2D8;strokeColor=#A8201A;fontColor=#143642;" edge="1" parent="1">
          <mxGeometry width="160" relative="1" as="geometry">
            <mxPoint x="370.6300000000005" y="282" as="sourcePoint" />
            <mxPoint x="180.79666666666702" y="282" as="targetPoint" />
          </mxGeometry>
        </mxCell>
      </root>
    </mxGraphModel>
  </diagram>
</mxfile>
